<mxfile host="app.diagrams.net" modified="2023-06-25T07:14:54.221Z" agent="Mozilla/5.0 (Windows NT 10.0; Win64; x64) AppleWebKit/537.36 (KHTML, like Gecko) Chrome/102.0.0.0 Safari/537.36" etag="aP-XzU5mjA_NJMKVlXhz" version="21.5.0" type="github">
  <diagram name="第 1 页" id="XTAGv8s2-g7qcfSyZqgv">
    <mxGraphModel dx="1687" dy="899" grid="1" gridSize="10" guides="1" tooltips="1" connect="1" arrows="1" fold="1" page="1" pageScale="1" pageWidth="827" pageHeight="1169" math="0" shadow="0">
      <root>
        <mxCell id="0" />
        <mxCell id="1" parent="0" />
        <mxCell id="jqverSeiv8bqJbgnV4iO-17" value="" style="edgeStyle=orthogonalEdgeStyle;rounded=0;orthogonalLoop=1;jettySize=auto;html=1;" parent="1" source="jqverSeiv8bqJbgnV4iO-2" target="jqverSeiv8bqJbgnV4iO-3" edge="1">
          <mxGeometry relative="1" as="geometry" />
        </mxCell>
        <mxCell id="jqverSeiv8bqJbgnV4iO-2" value="调用页面打分&lt;br&gt;相关的node接口" style="rounded=1;whiteSpace=wrap;html=1;" parent="1" vertex="1">
          <mxGeometry x="210" y="330" width="120" height="60" as="geometry" />
        </mxCell>
        <mxCell id="jqverSeiv8bqJbgnV4iO-11" value="" style="edgeStyle=orthogonalEdgeStyle;rounded=0;orthogonalLoop=1;jettySize=auto;html=1;" parent="1" source="jqverSeiv8bqJbgnV4iO-3" target="jqverSeiv8bqJbgnV4iO-4" edge="1">
          <mxGeometry relative="1" as="geometry" />
        </mxCell>
        <mxCell id="jqverSeiv8bqJbgnV4iO-3" value="获取建站落地页url" style="rounded=1;whiteSpace=wrap;html=1;" parent="1" vertex="1">
          <mxGeometry x="715" y="330" width="120" height="60" as="geometry" />
        </mxCell>
        <mxCell id="jqverSeiv8bqJbgnV4iO-12" value="" style="edgeStyle=orthogonalEdgeStyle;rounded=0;orthogonalLoop=1;jettySize=auto;html=1;" parent="1" source="jqverSeiv8bqJbgnV4iO-4" target="jqverSeiv8bqJbgnV4iO-5" edge="1">
          <mxGeometry relative="1" as="geometry" />
        </mxCell>
        <mxCell id="jqverSeiv8bqJbgnV4iO-4" value="调用child_process模块管理进程池" style="rounded=1;whiteSpace=wrap;html=1;" parent="1" vertex="1">
          <mxGeometry x="715" y="460" width="120" height="60" as="geometry" />
        </mxCell>
        <mxCell id="jqverSeiv8bqJbgnV4iO-13" value="" style="edgeStyle=orthogonalEdgeStyle;rounded=0;orthogonalLoop=1;jettySize=auto;html=1;" parent="1" source="jqverSeiv8bqJbgnV4iO-5" target="jqverSeiv8bqJbgnV4iO-6" edge="1">
          <mxGeometry relative="1" as="geometry" />
        </mxCell>
        <mxCell id="jqverSeiv8bqJbgnV4iO-26" value="" style="edgeStyle=orthogonalEdgeStyle;rounded=0;orthogonalLoop=1;jettySize=auto;html=1;" parent="1" source="jqverSeiv8bqJbgnV4iO-5" target="jqverSeiv8bqJbgnV4iO-19" edge="1">
          <mxGeometry relative="1" as="geometry" />
        </mxCell>
        <mxCell id="jqverSeiv8bqJbgnV4iO-5" value="当前进程数是否&lt;br&gt;小于最大值" style="rhombus;whiteSpace=wrap;html=1;" parent="1" vertex="1">
          <mxGeometry x="710" y="600" width="130" height="80" as="geometry" />
        </mxCell>
        <mxCell id="YkwEhCFnEpCa_kukyvDK-21" value="" style="edgeStyle=orthogonalEdgeStyle;rounded=0;orthogonalLoop=1;jettySize=auto;html=1;" edge="1" parent="1" source="jqverSeiv8bqJbgnV4iO-6" target="jqverSeiv8bqJbgnV4iO-7">
          <mxGeometry relative="1" as="geometry" />
        </mxCell>
        <mxCell id="jqverSeiv8bqJbgnV4iO-6" value="衍生子进程&lt;br&gt;执行任务" style="rounded=1;whiteSpace=wrap;html=1;" parent="1" vertex="1">
          <mxGeometry x="715" y="790" width="120" height="60" as="geometry" />
        </mxCell>
        <mxCell id="YkwEhCFnEpCa_kukyvDK-22" value="" style="edgeStyle=orthogonalEdgeStyle;rounded=0;orthogonalLoop=1;jettySize=auto;html=1;" edge="1" parent="1" source="jqverSeiv8bqJbgnV4iO-7" target="YkwEhCFnEpCa_kukyvDK-11">
          <mxGeometry relative="1" as="geometry" />
        </mxCell>
        <mxCell id="jqverSeiv8bqJbgnV4iO-7" value="puppeteer启动浏览器" style="rounded=1;whiteSpace=wrap;html=1;" parent="1" vertex="1">
          <mxGeometry x="715" y="950" width="120" height="60" as="geometry" />
        </mxCell>
        <mxCell id="jqverSeiv8bqJbgnV4iO-10" value="展示数据" style="rounded=1;whiteSpace=wrap;html=1;" parent="1" vertex="1">
          <mxGeometry x="210" y="2230" width="120" height="60" as="geometry" />
        </mxCell>
        <mxCell id="jqverSeiv8bqJbgnV4iO-19" value="添加到任务队列&lt;br&gt;等待执行" style="rounded=1;whiteSpace=wrap;html=1;" parent="1" vertex="1">
          <mxGeometry x="955" y="610" width="120" height="60" as="geometry" />
        </mxCell>
        <mxCell id="jqverSeiv8bqJbgnV4iO-34" value="" style="edgeStyle=orthogonalEdgeStyle;rounded=0;orthogonalLoop=1;jettySize=auto;html=1;" parent="1" source="jqverSeiv8bqJbgnV4iO-21" target="jqverSeiv8bqJbgnV4iO-25" edge="1">
          <mxGeometry relative="1" as="geometry" />
        </mxCell>
        <mxCell id="jqverSeiv8bqJbgnV4iO-21" value="子任务执行完毕" style="rounded=1;whiteSpace=wrap;html=1;" parent="1" vertex="1">
          <mxGeometry x="715" y="1800" width="120" height="60" as="geometry" />
        </mxCell>
        <mxCell id="jqverSeiv8bqJbgnV4iO-30" value="" style="edgeStyle=orthogonalEdgeStyle;rounded=0;orthogonalLoop=1;jettySize=auto;html=1;" parent="1" source="jqverSeiv8bqJbgnV4iO-25" target="jqverSeiv8bqJbgnV4iO-28" edge="1">
          <mxGeometry relative="1" as="geometry" />
        </mxCell>
        <mxCell id="YkwEhCFnEpCa_kukyvDK-34" value="" style="edgeStyle=orthogonalEdgeStyle;rounded=0;orthogonalLoop=1;jettySize=auto;html=1;" edge="1" parent="1" source="jqverSeiv8bqJbgnV4iO-25" target="YkwEhCFnEpCa_kukyvDK-33">
          <mxGeometry relative="1" as="geometry" />
        </mxCell>
        <mxCell id="jqverSeiv8bqJbgnV4iO-25" value="任务队列是否为空" style="rhombus;whiteSpace=wrap;html=1;" parent="1" vertex="1">
          <mxGeometry x="710" y="1930" width="130" height="80" as="geometry" />
        </mxCell>
        <mxCell id="jqverSeiv8bqJbgnV4iO-28" value="取出队列首任务" style="rounded=1;whiteSpace=wrap;html=1;" parent="1" vertex="1">
          <mxGeometry x="955" y="950" width="120" height="60" as="geometry" />
        </mxCell>
        <mxCell id="jqverSeiv8bqJbgnV4iO-29" value="" style="endArrow=classic;html=1;rounded=0;exitX=0.5;exitY=0;exitDx=0;exitDy=0;entryX=1;entryY=0.5;entryDx=0;entryDy=0;" parent="1" source="jqverSeiv8bqJbgnV4iO-28" target="jqverSeiv8bqJbgnV4iO-6" edge="1">
          <mxGeometry width="50" height="50" relative="1" as="geometry">
            <mxPoint x="1075" y="870" as="sourcePoint" />
            <mxPoint x="1125" y="820" as="targetPoint" />
            <Array as="points">
              <mxPoint x="1015" y="820" />
            </Array>
          </mxGeometry>
        </mxCell>
        <mxCell id="jqverSeiv8bqJbgnV4iO-33" value="否" style="text;html=1;strokeColor=none;fillColor=none;align=center;verticalAlign=middle;whiteSpace=wrap;rounded=0;" parent="1" vertex="1">
          <mxGeometry x="1015" y="1320" width="60" height="30" as="geometry" />
        </mxCell>
        <mxCell id="jqverSeiv8bqJbgnV4iO-35" value="是" style="text;html=1;strokeColor=none;fillColor=none;align=center;verticalAlign=middle;whiteSpace=wrap;rounded=0;" parent="1" vertex="1">
          <mxGeometry x="775" y="720" width="60" height="30" as="geometry" />
        </mxCell>
        <mxCell id="jqverSeiv8bqJbgnV4iO-38" value="否" style="text;html=1;strokeColor=none;fillColor=none;align=center;verticalAlign=middle;whiteSpace=wrap;rounded=0;" parent="1" vertex="1">
          <mxGeometry x="855" y="610" width="60" height="30" as="geometry" />
        </mxCell>
        <object placeholders="1" c4Name="Web" c4Type="ContainerScopeBoundary" c4Application="Container" label="&lt;font style=&quot;font-size: 16px&quot;&gt;&lt;b&gt;&lt;div style=&quot;text-align: left&quot;&gt;%c4Name%&lt;/div&gt;&lt;/b&gt;&lt;/font&gt;&lt;div style=&quot;text-align: left&quot;&gt;[%c4Application%]&lt;/div&gt;" id="jqverSeiv8bqJbgnV4iO-42">
          <mxCell style="rounded=1;fontSize=11;whiteSpace=wrap;html=1;dashed=1;arcSize=20;fillColor=none;strokeColor=#666666;fontColor=#333333;labelBackgroundColor=none;align=left;verticalAlign=bottom;labelBorderColor=none;spacingTop=0;spacing=10;dashPattern=8 4;metaEdit=1;rotatable=0;perimeter=rectanglePerimeter;noLabel=0;labelPadding=0;allowArrows=0;connectable=0;expand=0;recursiveResize=0;editable=1;pointerEvents=0;absoluteArcSize=1;points=[[0.25,0,0],[0.5,0,0],[0.75,0,0],[1,0.25,0],[1,0.5,0],[1,0.75,0],[0.75,1,0],[0.5,1,0],[0.25,1,0],[0,0.75,0],[0,0.5,0],[0,0.25,0]];" parent="1" vertex="1">
            <mxGeometry x="90" y="280" width="360" height="2130" as="geometry" />
          </mxCell>
        </object>
        <object placeholders="1" c4Name="node" c4Type="ContainerScopeBoundary" c4Application="Container" label="&lt;font style=&quot;font-size: 16px&quot;&gt;&lt;b&gt;&lt;div style=&quot;text-align: left&quot;&gt;%c4Name%&lt;/div&gt;&lt;/b&gt;&lt;/font&gt;&lt;div style=&quot;text-align: left&quot;&gt;[%c4Application%]&lt;/div&gt;" id="jqverSeiv8bqJbgnV4iO-43">
          <mxCell style="rounded=1;fontSize=11;whiteSpace=wrap;html=1;dashed=1;arcSize=20;fillColor=none;strokeColor=#666666;fontColor=#333333;labelBackgroundColor=none;align=left;verticalAlign=bottom;labelBorderColor=none;spacingTop=0;spacing=10;dashPattern=8 4;metaEdit=1;rotatable=0;perimeter=rectanglePerimeter;noLabel=0;labelPadding=0;allowArrows=0;connectable=0;expand=0;recursiveResize=0;editable=1;pointerEvents=0;absoluteArcSize=1;points=[[0.25,0,0],[0.5,0,0],[0.75,0,0],[1,0.25,0],[1,0.5,0],[1,0.75,0],[0.75,1,0],[0.5,1,0],[0.25,1,0],[0,0.75,0],[0,0.5,0],[0,0.25,0]];" parent="1" vertex="1">
            <mxGeometry x="480" y="280" width="670" height="2130" as="geometry" />
          </mxCell>
        </object>
        <mxCell id="YkwEhCFnEpCa_kukyvDK-13" value="" style="edgeStyle=orthogonalEdgeStyle;rounded=0;orthogonalLoop=1;jettySize=auto;html=1;" edge="1" parent="1" source="YkwEhCFnEpCa_kukyvDK-11" target="YkwEhCFnEpCa_kukyvDK-12">
          <mxGeometry relative="1" as="geometry" />
        </mxCell>
        <mxCell id="YkwEhCFnEpCa_kukyvDK-11" value="lighthouse基于url进行打分" style="rounded=1;whiteSpace=wrap;html=1;" vertex="1" parent="1">
          <mxGeometry x="715" y="1080" width="120" height="60" as="geometry" />
        </mxCell>
        <mxCell id="YkwEhCFnEpCa_kukyvDK-19" value="" style="edgeStyle=orthogonalEdgeStyle;rounded=0;orthogonalLoop=1;jettySize=auto;html=1;exitX=1;exitY=0.5;exitDx=0;exitDy=0;" edge="1" parent="1" source="YkwEhCFnEpCa_kukyvDK-12" target="YkwEhCFnEpCa_kukyvDK-16">
          <mxGeometry relative="1" as="geometry" />
        </mxCell>
        <mxCell id="YkwEhCFnEpCa_kukyvDK-12" value="参数isCustom&lt;br&gt;是否为true" style="rhombus;whiteSpace=wrap;html=1;" vertex="1" parent="1">
          <mxGeometry x="710" y="1220" width="130" height="80" as="geometry" />
        </mxCell>
        <mxCell id="YkwEhCFnEpCa_kukyvDK-14" value="是" style="text;html=1;strokeColor=none;fillColor=none;align=center;verticalAlign=middle;whiteSpace=wrap;rounded=0;" vertex="1" parent="1">
          <mxGeometry x="650" y="1320" width="60" height="30" as="geometry" />
        </mxCell>
        <mxCell id="YkwEhCFnEpCa_kukyvDK-15" value="基于参数&lt;br&gt;customParams定制llighthouse返回指标&lt;br&gt;&lt;p style=&quot;line-height: 100%;margin-bottom: 0pt;margin-top: 0pt;font-size: 11pt;color: #494949;&quot; class=&quot;ql-direction-ltr&quot;&gt;&lt;/p&gt;&lt;span data-copy-origin=&quot;https://odocs.myoas.com&quot; data-docs-delta=&quot;[[20,&amp;quot;customParams&amp;quot;]]&quot;&gt;&lt;/span&gt;&lt;p style=&quot;line-height: 100%;margin-bottom: 0pt;margin-top: 0pt;font-size: 11pt;color: #494949;&quot; class=&quot;ql-direction-ltr&quot;&gt;&lt;/p&gt;&lt;span data-copy-origin=&quot;https://odocs.myoas.com&quot; data-docs-delta=&quot;[[20,&amp;quot;customParams&amp;quot;]]&quot;&gt;&lt;/span&gt;&lt;p style=&quot;line-height: 100%;margin-bottom: 0pt;margin-top: 0pt;font-size: 11pt;color: #494949;&quot; class=&quot;ql-direction-ltr&quot;&gt;&lt;/p&gt;" style="rounded=1;whiteSpace=wrap;html=1;" vertex="1" parent="1">
          <mxGeometry x="590" y="1390" width="120" height="60" as="geometry" />
        </mxCell>
        <mxCell id="YkwEhCFnEpCa_kukyvDK-16" value="返回performance、performance相关的六个核心指标和打分结果的HTML页面" style="rounded=1;whiteSpace=wrap;html=1;" vertex="1" parent="1">
          <mxGeometry x="840" y="1390" width="120" height="60" as="geometry" />
        </mxCell>
        <mxCell id="YkwEhCFnEpCa_kukyvDK-18" value="" style="endArrow=classic;html=1;rounded=0;entryX=0.5;entryY=0;entryDx=0;entryDy=0;exitX=0;exitY=0.5;exitDx=0;exitDy=0;" edge="1" parent="1" source="YkwEhCFnEpCa_kukyvDK-12" target="YkwEhCFnEpCa_kukyvDK-15">
          <mxGeometry width="50" height="50" relative="1" as="geometry">
            <mxPoint x="715" y="1390" as="sourcePoint" />
            <mxPoint x="765" y="1340" as="targetPoint" />
            <Array as="points">
              <mxPoint x="650" y="1260" />
            </Array>
          </mxGeometry>
        </mxCell>
        <mxCell id="YkwEhCFnEpCa_kukyvDK-20" value="否" style="text;html=1;strokeColor=none;fillColor=none;align=center;verticalAlign=middle;whiteSpace=wrap;rounded=0;" vertex="1" parent="1">
          <mxGeometry x="840" y="1320" width="60" height="30" as="geometry" />
        </mxCell>
        <mxCell id="YkwEhCFnEpCa_kukyvDK-31" value="" style="edgeStyle=orthogonalEdgeStyle;rounded=0;orthogonalLoop=1;jettySize=auto;html=1;" edge="1" parent="1" source="YkwEhCFnEpCa_kukyvDK-23" target="YkwEhCFnEpCa_kukyvDK-30">
          <mxGeometry relative="1" as="geometry" />
        </mxCell>
        <mxCell id="YkwEhCFnEpCa_kukyvDK-23" value="将打分数据和&lt;br&gt;HTML页面&lt;br&gt;存储到OCS" style="rounded=1;whiteSpace=wrap;html=1;" vertex="1" parent="1">
          <mxGeometry x="715" y="1550" width="120" height="60" as="geometry" />
        </mxCell>
        <mxCell id="YkwEhCFnEpCa_kukyvDK-24" value="" style="endArrow=classic;html=1;rounded=0;exitX=0.5;exitY=1;exitDx=0;exitDy=0;entryX=0;entryY=0.5;entryDx=0;entryDy=0;" edge="1" parent="1" source="YkwEhCFnEpCa_kukyvDK-15" target="YkwEhCFnEpCa_kukyvDK-23">
          <mxGeometry width="50" height="50" relative="1" as="geometry">
            <mxPoint x="755" y="1500" as="sourcePoint" />
            <mxPoint x="805" y="1450" as="targetPoint" />
            <Array as="points">
              <mxPoint x="650" y="1580" />
            </Array>
          </mxGeometry>
        </mxCell>
        <mxCell id="YkwEhCFnEpCa_kukyvDK-25" value="" style="endArrow=classic;html=1;rounded=0;exitX=0.5;exitY=1;exitDx=0;exitDy=0;entryX=1;entryY=0.5;entryDx=0;entryDy=0;" edge="1" parent="1" source="YkwEhCFnEpCa_kukyvDK-16" target="YkwEhCFnEpCa_kukyvDK-23">
          <mxGeometry width="50" height="50" relative="1" as="geometry">
            <mxPoint x="660" y="1460" as="sourcePoint" />
            <mxPoint x="725" y="1590" as="targetPoint" />
            <Array as="points">
              <mxPoint x="900" y="1580" />
            </Array>
          </mxGeometry>
        </mxCell>
        <mxCell id="YkwEhCFnEpCa_kukyvDK-32" value="" style="edgeStyle=orthogonalEdgeStyle;rounded=0;orthogonalLoop=1;jettySize=auto;html=1;" edge="1" parent="1" source="YkwEhCFnEpCa_kukyvDK-30" target="jqverSeiv8bqJbgnV4iO-21">
          <mxGeometry relative="1" as="geometry" />
        </mxCell>
        <mxCell id="YkwEhCFnEpCa_kukyvDK-30" value="记录LH打分数据和存储HTML页面的OCS链接" style="rounded=1;whiteSpace=wrap;html=1;" vertex="1" parent="1">
          <mxGeometry x="715" y="1680" width="120" height="60" as="geometry" />
        </mxCell>
        <mxCell id="YkwEhCFnEpCa_kukyvDK-38" value="" style="edgeStyle=orthogonalEdgeStyle;rounded=0;orthogonalLoop=1;jettySize=auto;html=1;" edge="1" parent="1" source="YkwEhCFnEpCa_kukyvDK-33" target="YkwEhCFnEpCa_kukyvDK-37">
          <mxGeometry relative="1" as="geometry" />
        </mxCell>
        <mxCell id="YkwEhCFnEpCa_kukyvDK-33" value="整合所有子任务&lt;br&gt;的打分结果" style="rounded=1;whiteSpace=wrap;html=1;" vertex="1" parent="1">
          <mxGeometry x="715" y="2080" width="120" height="60" as="geometry" />
        </mxCell>
        <mxCell id="YkwEhCFnEpCa_kukyvDK-36" value="是" style="text;html=1;strokeColor=none;fillColor=none;align=center;verticalAlign=middle;whiteSpace=wrap;rounded=0;" vertex="1" parent="1">
          <mxGeometry x="775" y="2030" width="60" height="30" as="geometry" />
        </mxCell>
        <mxCell id="YkwEhCFnEpCa_kukyvDK-37" value="返回整合后&lt;br&gt;的打分数据" style="rounded=1;whiteSpace=wrap;html=1;" vertex="1" parent="1">
          <mxGeometry x="715" y="2230" width="120" height="60" as="geometry" />
        </mxCell>
        <mxCell id="YkwEhCFnEpCa_kukyvDK-39" value="" style="endArrow=classic;html=1;rounded=0;exitX=0;exitY=0.5;exitDx=0;exitDy=0;entryX=1;entryY=0.5;entryDx=0;entryDy=0;" edge="1" parent="1" source="YkwEhCFnEpCa_kukyvDK-37" target="jqverSeiv8bqJbgnV4iO-10">
          <mxGeometry width="50" height="50" relative="1" as="geometry">
            <mxPoint x="510" y="2370" as="sourcePoint" />
            <mxPoint x="560" y="2320" as="targetPoint" />
          </mxGeometry>
        </mxCell>
      </root>
    </mxGraphModel>
  </diagram>
</mxfile>
